<?xml version="1.0" ?><svg height="20px" version="1.1" viewBox="0 0 20 20" width="20px" xmlns="http://www.w3.org/2000/svg" xmlns:sketch="http://www.bohemiancoding.com/sketch/ns" xmlns:xlink="http://www.w3.org/1999/xlink"><title/><desc/><defs/><g fill="none" fill-rule="evenodd" id="Page-1" stroke="none" stroke-width="1"><g fill="#000000" id="Icons-Device" transform="translate(-44.000000, -126.000000)"><g id="nfc" transform="translate(44.000000, 126.000000)"><path d="M18,0 L2,0 C0.9,0 0,0.9 0,2 L0,18 C0,19.1 0.9,20 2,20 L18,20 C19.1,20 20,19.1 20,18 L20,2 C20,0.9 19.1,0 18,0 L18,0 Z M18,18 L2,18 L2,2 L18,2 L18,18 L18,18 Z M16,4 L11,4 C9.9,4 9,4.9 9,6 L9,8.3 C8.4,8.6 8,9.3 8,10 C8,11.1 8.9,12 10,12 C11.1,12 12,11.1 12,10 C12,9.3 11.6,8.6 11,8.3 L11,6 L14,6 L14,14 L6,14 L6,6 L8,6 L8,4 L6,4 L4,4 L4,16 L16,16 L16,4 L16,4 Z" id="Shape"/></g></g></g></svg>